<svg version="1" xmlns="http://www.w3.org/2000/svg" viewBox="0 0 40 40"><path d="M33.5 11.4L30 8.7a17.4 17.4 0 0 0-21 0l-3.5 2.7c-.3.3-.5.7-.5 1.1v13.3l4.8 1.3c.9.2 1.8.4 2.8.4h.7l-.5-3.3h14l-.5 3.3h.6c1 0 2-.1 3-.4l4.1-1.2V12.5c0-.4-.2-.8-.5-1.1z" fill="#e6e6e6" stroke="#e64c3c" stroke-width="2" stroke-linecap="round" stroke-linejoin="round" stroke-miterlimit="10"/><path d="M26.2 21.9H12.8v-8.2c0-.4.3-.8.8-.8h11.8c.4 0 .8.3.8.8v8.2z" fill="#fff" stroke="#e64c3c" stroke-width="2" stroke-miterlimit="10"/><path d="M25.1 35.8l-2.5-2.4-2.6 2.3-2.6-2.5c-.1-.1-.3-.1-.4 0l-2.6 2.6-1.7-11.7h14l-1.6 11.7zm1.6-11.7L14.5 35.8m-1.7-11.7l12.3 11.7" fill="none" stroke="#bdc3c7" stroke-width="2" stroke-linecap="round" stroke-linejoin="round" stroke-miterlimit="10"/><path fill="none" stroke="#bdc3c7" stroke-width="2" stroke-miterlimit="10" d="M20 24.1l-6.1 5.6m5.6-5.6l6.1 5.6"/><path fill="none" stroke="#bdc3c7" stroke-width="2" stroke-linecap="round" stroke-linejoin="round" stroke-miterlimit="10" d="M20 35.7l-6.1-5.5m6.1 5.5l5.6-5.5"/><path d="M27.6 24.1H11.4c-.8 0-1.4-.6-1.4-1.4 0-.8.6-1.4 1.4-1.4h16.2c.8 0 1.4.6 1.4 1.4 0 .8-.7 1.4-1.4 1.4z" fill="#38454f"/></svg>