<svg xmlns="http://www.w3.org/2000/svg" viewBox="0 0 40 40"><path d="M24.7 23.1c.1.1.1.2.1.4 0 .8-.8 2.4-2.5 3.1-1.3.6-1.3 7.1-1.3 9.8 0 .3-.1.6-.3.9-.2.2-.5.4-.8.4-.3 0-.6-.1-.8-.4s-.3-.5-.3-.8c0-2.7 0-9.2-1.3-9.8-1.6-.8-2.5-2.4-2.5-3.1 0-.1 0-.3.1-.4l9.6-.1z" fill="#e64c3c"/><circle cx="19.9" cy="13.3" r="10.9" fill="#e6e7e8"/><path d="M12.6 18.2h-.2s-.1 0-.1-.1c0 0-.1 0-.1-.1-.2-.2-.2-.6 0-.9.2-.2.4-.2.7-.1.1 0 .1.1.2.1.2.2.2.6 0 .9-.1.1-.1.1-.2.1-.1.1-.2.1-.3.1zm2.4 1.2c-.2 0-.3-.1-.4-.2 0 0 0-.1-.1-.1 0 0 0-.1-.1-.1v-.2c0-.2.1-.3.2-.4.1-.1.4-.2.6-.2h.1s.1 0 .1.1c0 0 .1 0 .1.1.1.1.2.3.2.4v.2s0 .1-.1.1c0 .1-.1.1-.2.2 0 0-.1 0-.1.1H15zm2.5.6h-.2c-.1 0-.1-.1-.2-.1-.2-.2-.2-.6 0-.9.1-.1.1-.1.2-.1.1-.1.3-.1.5 0 .1 0 .1.1.2.1.2.2.2.6 0 .9-.1.1-.1.1-.2.1h-.3zm-1.3 1.8c-.2 0-.3-.1-.4-.2 0 0 0-.1-.1-.1 0 0 0-.1-.1-.1v-.2c0-.2.1-.3.2-.4.1-.1.4-.2.6-.2h.1s.1 0 .1.1c0 0 .1 0 .1.1.1.1.2.3.2.4v.2s0 .1-.1.1c0 0 0 .1-.1.1 0 0-.1 0-.1.1 0 0-.1 0-.1.1h-.3zm2.5.6h-.2s-.1 0-.1-.1c0 0-.1 0-.1-.1-.1-.1-.2-.3-.2-.4v-.2c0-.1.1-.1.1-.2.1-.1.4-.2.6-.2h.1s.1 0 .1.1c0 0 .1 0 .1.1.1.1.1.1.1.2v.2c0 .2-.1.3-.2.4l-.1.1s-.1 0-.1.1h-.1c.1 0 0 0 0 0zm2.4 0c-.2 0-.3-.1-.4-.2s-.2-.3-.2-.4v-.2c0-.1.1-.1.1-.2.2-.2.4-.2.7-.1.2.1.3.2.3.3v.2c0 .2-.1.3-.2.4 0 .2-.1.2-.3.2zm2.4-.6c-.2 0-.3-.1-.4-.2 0 0 0-.1-.1-.1 0 0 0-.1-.1-.1v-.2c0-.2.1-.3.2-.4.1-.1.4-.2.6-.2h.1s.1 0 .1.1c0 0 .1 0 .1.1.1.1.2.3.2.4v.2s0 .1-.1.1c0 0 0 .1-.1.1 0 0-.1 0-.1.1 0 0-.1 0-.1.1h-.3zM19.9 20h-.2s-.1 0-.1-.1c0 0-.1 0-.1-.1-.2-.2-.2-.6 0-.9.2-.2.6-.2.9 0s.2.6 0 .9l-.1.1s-.1 0-.1.1h-.3zm2.4 0c-.2 0-.3-.1-.4-.2s-.2-.3-.2-.4v-.2s0-.1.1-.1c0 0 0-.1.1-.1.1-.1.4-.2.6-.2h.1s.1 0 .1.1c0 0 .1 0 .1.1.2.2.2.6 0 .9l-.1.1s-.1 0-.1.1h-.1c-.1-.1-.1-.1-.2-.1zm2.5-.6c-.2 0-.3-.1-.4-.2 0 0 0-.1-.1-.1 0 0 0-.1-.1-.1v-.2c0-.2.1-.3.2-.4.1-.1.4-.2.6-.2h.1s.1 0 .1.1c0 0 .1 0 .1.1.1.1.2.3.2.4v.2s0 .1-.1.1c0 .1-.1.1-.2.2 0 0-.1 0-.1.1h-.3zm2.4-1.2H27c-.1 0-.1-.1-.2-.1 0 0 0-.1-.1-.1 0 0 0-.1-.1-.1v-.2c0-.2.1-.3.2-.4.1-.1.1-.1.2-.1.1-.1.3-.1.5 0 .1 0 .1.1.2.1.1.1.2.3.2.4v.2s0 .1-.1.1c0 0 0 .1-.1.1-.1.1-.1.1-.2.1h-.3zm-15.8-3.1h-.2c-.2-.1-.3-.2-.3-.3v-.2c0-.2.1-.3.2-.4.1-.1.1-.1.2-.1.2-.1.5 0 .7.1.1.1.2.3.2.4v.2c0 .1-.1.1-.1.2-.4.1-.6.1-.7.1zm2.4 1.3h-.2c-.1 0-.1-.1-.2-.1-.1-.1-.2-.3-.2-.4v-.2c.1-.2.2-.3.3-.3.1-.1.3-.1.5 0s.3.2.3.3v.2c0 .2-.1.3-.2.4-.1.1-.1.1-.2.1.1-.1 0 0-.1 0zm14.6-1.3c-.2 0-.3-.1-.4-.2-.1-.1-.1-.1-.1-.2v-.2c0-.2.1-.3.2-.4l.1-.1s.1 0 .1-.1h.5c.1 0 .1.1.2.1.1.1.2.3.2.4v.2c-.1.2-.2.3-.3.3-.3.2-.4.2-.5.2zM26 16.4h-.2c-.1 0-.1-.1-.2-.1-.1-.1-.2-.3-.2-.4v-.2c.1-.2.2-.3.3-.3.1-.1.3-.1.5 0s.3.2.3.3v.2c0 .2-.1.3-.2.4-.1.1-.1.1-.2.1 0-.1-.1 0-.1 0zm-9.8.6H16c-.2-.1-.3-.2-.3-.3-.1-.1-.1-.3 0-.5s.2-.3.3-.3c.1-.1.3-.1.5 0s.3.2.3.3c.1.1.1.3 0 .5s-.2.3-.3.3h-.3zm2.5.6c-.2 0-.3-.1-.4-.2-.1-.1-.2-.3-.2-.4v-.2s0-.1.1-.1c0 0 0-.1.1-.1.2-.2.6-.2.9 0l.1.1s0 .1.1.1v.2c0 .2-.1.3-.2.4-.2.1-.4.2-.5.2zm2.4 0c-.2 0-.3-.1-.4-.2s-.2-.3-.2-.4v-.2s0-.1.1-.1c0 0 0-.1.1-.1.2-.2.6-.2.9 0l.1.1s0 .1.1.1v.2c0 .2-.1.3-.2.4-.2.1-.3.2-.5.2zm2.4-.6c-.2 0-.3-.1-.4-.2-.1-.1-.1-.1-.1-.2-.1-.1-.1-.3 0-.5 0-.1.1-.1.1-.2.2-.2.4-.2.7-.1.1 0 .1.1.2.1.1.1.1.1.1.2.1.1.1.3 0 .5 0 .1-.1.1-.1.2-.1.1-.1.1-.2.1-.1.1-.2.1-.3.1z" fill="#bdc3c7"/></svg>