<svg version="1" xmlns="http://www.w3.org/2000/svg" viewBox="0 0 40 40"><path d="M32.8 8.8c-3-3.4-7.1-5.5-11.7-5.8-5.2-.3-10.3 1.7-13.9 5.8-2.5 2.8-3.9 6.3-4.2 10.1v2.3c.6 9.3 8.6 16.5 18.1 15.8 4.5-.3 8.6-2.3 11.7-5.8 2.5-2.8 3.9-6.3 4.2-10.1.3-4.4-1.1-8.8-4.2-12.3zm-4.3 21.3c-2 1.7-4.6 2.8-7.4 3.1-3.5.3-6.9-.8-9.6-3.1-.6-.5-1.1-1-1.6-1.6-1.7-2-2.8-4.6-3.1-7.4-.1-.8-.1-1.5 0-2.3.2-2.8 1.4-5.3 3.1-7.4.5-.6 1-1.1 1.6-1.6 2-1.7 4.6-2.8 7.4-3.1h2.2c2.8.2 5.3 1.4 7.4 3.1.6.5 1.1 1 1.6 1.6 1.7 2 2.8 4.6 3.1 7.4.3 4.3-1.3 8.5-4.7 11.3z" fill="#ff7058"/><g fill="#f1543f"><path d="M32.8 8.8c-3-3.4-7.1-5.5-11.7-5.8H20v3.8h1.1c2.8.2 5.3 1.4 7.4 3.1.6.5 1.1 1 1.6 1.6 1.7 2 2.8 4.6 3.1 7.4.4 4.3-1.3 8.4-4.7 11.2-2 1.7-4.6 2.8-7.4 3.1H20V37h1.1c4.5-.3 8.6-2.3 11.7-5.8 2.5-2.8 3.9-6.3 4.2-10.1.3-4.4-1.1-8.8-4.2-12.3z"/><path d="M21.1 3v3.8h-2.2V3h2.2zm0 30.2V37h-2.3v-3.8h2.3zM11.5 9.9c-.6.5-1.1 1-1.6 1.6L7.2 8.8c.5-.6 1-1.1 1.6-1.6l2.7 2.7zM6.8 21.1H3v-2.3h3.8v2.3zm4.7 9l-2.7 2.7c-.6-.5-1.1-1-1.6-1.6l2.7-2.7c.5.6 1 1.1 1.6 1.6z"/></g><path d="M20 3v3.8h1.1V3H20zm0 30.2V37h1.1v-3.8H20zm12.8-2c-.5.6-1 1.1-1.6 1.6l-2.7-2.7c.6-.5 1.1-1 1.6-1.6l2.7 2.7zM37 21.1h-3.8c.1-.8.1-1.5 0-2.3H37v2.3zM32.8 8.8l-2.7 2.7c-.5-.6-1-1.1-1.6-1.6l2.7-2.7c.6.5 1.1 1 1.6 1.6z" fill="#e03e34"/></svg>