<svg version="1" xmlns="http://www.w3.org/2000/svg" viewBox="0 0 40 40"><linearGradient id="a" gradientUnits="userSpaceOnUse" x1="15.749" y1="-474.057" x2="15.749" y2="-443.026" gradientTransform="translate(3.2 514.8) scale(1.0667)"><stop offset="0" stop-color="#ffcf95"/><stop offset=".427" stop-color="#ffc954"/><stop offset="1" stop-color="#ffc200"/></linearGradient><path d="M21.1 6.5l4 8 8.9 1.3c1 .1 1.4 1.4.7 2.1l-6.4 6.3 1.5 8.8c.2 1-.9 1.8-1.8 1.3l-8-4.2-7.9 4.2c-.9.5-2-.3-1.8-1.3l1.5-8.8-6.4-6.3c-.7-.7-.3-2 .7-2.1l8.9-1.3 4-8c.3-.9 1.7-.9 2.1 0z" fill="url(#a)"/><linearGradient id="b" gradientUnits="userSpaceOnUse" x1="23.039" y1="-470.055" x2="13.658" y2="-470.055" gradientTransform="translate(3.2 514.8) scale(1.0667)"><stop offset="0" stop-color="#ffc200" stop-opacity="0"/><stop offset=".203" stop-color="#fb0" stop-opacity=".203"/><stop offset=".499" stop-color="#ffa700" stop-opacity=".499"/><stop offset=".852" stop-color="#f80" stop-opacity=".852"/><stop offset="1" stop-color="#ff7800"/></linearGradient><path d="M25.1 14.5l-4-8c-.2-.5-.7-.7-1.1-.7V21l5.1-6.5z" fill="url(#b)"/><linearGradient id="c" gradientUnits="userSpaceOnUse" x1="24.641" y1="-455.683" x2="22.156" y2="-467.917" gradientTransform="translate(3.2 514.8) scale(1.0667)"><stop offset="0" stop-color="#ffc200" stop-opacity="0"/><stop offset=".203" stop-color="#fb0" stop-opacity=".203"/><stop offset=".499" stop-color="#ffa700" stop-opacity=".499"/><stop offset=".852" stop-color="#f80" stop-opacity=".852"/><stop offset="1" stop-color="#ff7800"/></linearGradient><path d="M28.2 24.2l6.4-6.3c.4-.4.4-.8.3-1.2L20 21l8.2 3.2z" fill="url(#c)"/><linearGradient id="d" gradientUnits="userSpaceOnUse" x1="12.595" y1="-449.254" x2="22.325" y2="-458.984" gradientTransform="translate(3.2 514.8) scale(1.0667)"><stop offset="0" stop-color="#ffc200" stop-opacity="0"/><stop offset=".203" stop-color="#fb0" stop-opacity=".203"/><stop offset=".499" stop-color="#ffa700" stop-opacity=".499"/><stop offset=".852" stop-color="#f80" stop-opacity=".852"/><stop offset="1" stop-color="#ff7800"/></linearGradient><path d="M29.2 34.2L20 21v9.1l7.9 4.2c.5.2 1 .2 1.3-.1z" fill="url(#d)"/><linearGradient id="e" gradientUnits="userSpaceOnUse" x1="5.656" y1="-461.558" x2="12.828" y2="-455.558" gradientTransform="translate(3.2 514.8) scale(1.0667)"><stop offset="0" stop-color="#ffc200" stop-opacity="0"/><stop offset=".203" stop-color="#fb0" stop-opacity=".203"/><stop offset=".499" stop-color="#ffa700" stop-opacity=".499"/><stop offset=".852" stop-color="#f80" stop-opacity=".852"/><stop offset="1" stop-color="#ff7800"/></linearGradient><path d="M20 21l-8.2 3.2-1.5 8.8c-.1.5.1.9.5 1.2L20 21z" fill="url(#e)"/><linearGradient id="f" gradientUnits="userSpaceOnUse" x1="11.033" y1="-471.455" x2="8.127" y2="-463.205" gradientTransform="translate(3.2 514.8) scale(1.0667)"><stop offset="0" stop-color="#ffc200" stop-opacity="0"/><stop offset=".203" stop-color="#fb0" stop-opacity=".203"/><stop offset=".499" stop-color="#ffa700" stop-opacity=".499"/><stop offset=".852" stop-color="#f80" stop-opacity=".852"/><stop offset="1" stop-color="#ff7800"/></linearGradient><path d="M5.1 16.7L20 21l-5.1-6.5L6 15.8c-.5.1-.8.4-.9.9z" fill="url(#f)"/><linearGradient id="g" gradientUnits="userSpaceOnUse" x1="21.973" y1="-470.593" x2=".621" y2="-461.5" gradientTransform="translate(3.2 514.8) scale(1.0667)"><stop offset="0" stop-color="#ffc200" stop-opacity="0"/><stop offset=".203" stop-color="#fb0" stop-opacity=".203"/><stop offset=".499" stop-color="#ffa700" stop-opacity=".499"/><stop offset=".852" stop-color="#f80" stop-opacity=".852"/><stop offset="1" stop-color="#ff7800"/></linearGradient><path d="M11.8 24.2l-6.4-6.3c-.4-.4-.4-.8-.3-1.2L20 21l-8.2 3.2z" fill="url(#g)"/></svg>