<svg id="Layer_1" xmlns="http://www.w3.org/2000/svg" viewBox="0 0 40 40"><style>.st6{fill:#a1c8ec}</style><path fill="none" stroke="#424a60" stroke-width="2" stroke-linecap="round" stroke-miterlimit="10" d="M30.7 10.9l2-2"/><path transform="rotate(-45.001 33.55 8.119)" fill="#afb6bb" d="M31.8 6.4h3.4v3.4h-3.4z"/><path d="M20.2 6.6c-1.1 0-2.3.1-3.3.4v3.6h-4.6c-.3 0-.6.3-.6.6s.3.6.6.6h4.6v2.9H9.5c-.3 0-.6.3-.6.6s.3.6.6.6h7.4v2.9H6.6c-.3 0-.6.3-.6.6s.3.6.6.6h10.3v2.9H4.4c-.3 0-.6.3-.6.6s.3.6.6.6h12.5V27H7.8c-.3 0-.6.3-.6.6s.3.6.6.6h9.1v2.9h-5.7c-.3 0-.6.3-.6.6s.3.6.6.6h5.7v4.2c1.1.2 2.2.4 3.3.4 8.2 0 14.8-6.6 14.8-14.8S28.4 6.6 20.2 6.6z" fill="#3083c9"/><path d="M28.2 16.4c-.2-.2-.5-.2-.7-.1L20 21.7c-.5.4-.8.9-.8 1.5s.2 1.2.6 1.6c.4.4.9.6 1.4.6.6 0 1.3-.3 1.6-.8l5.3-7.4c.3-.3.3-.6.1-.8z" fill="#2b77aa"/><path d="M27.6 15.3c-.2-.2-.5-.2-.7-.1l-7.4 5.3c-.5.4-.8.9-.8 1.5s.2 1.2.6 1.6c.4.4.9.6 1.4.6.6 0 1.3-.3 1.6-.8l5.3-7.4c.2-.2.2-.5 0-.7z" fill="#efce4a"/><path d="M19.2 6.6h2.2V4.9h1.4c.5 0 .9-.4.9-.9s-.4-.9-.9-.9h-5.1c-.5 0-.9.4-.9.9s.4.9.9.9h1.4v1.7z" fill="#424a60"/><path class="st6" d="M20.3 6c-.3 0-.6.3-.6.6v1.7c0 .3.3.6.6.6s.6-.3.6-.6V6.6c0-.3-.2-.6-.6-.6zM20.3 34c-.3 0-.6.3-.6.6v1.7c0 .3.3.6.6.6s.6-.3.6-.6v-1.7c0-.4-.2-.6-.6-.6zM35.1 20.9h-1.7c-.3 0-.6.3-.6.6s.2.5.6.5h1.7c.3 0 .6-.3.6-.6-.1-.3-.3-.5-.6-.5zM27.9 8.1c-.3-.2-.6-.1-.8.2l-.9 1.5c-.2.3-.1.6.2.8.1.1.2.1.3.1.2 0 .4-.1.5-.3l.9-1.5c.2-.3.1-.7-.2-.8zM33.4 28.3l-1.5-.9c-.3-.2-.6-.1-.8.2-.1.4-.1.7.2.9l1.5.9c.1.1.2.1.3.1.2 0 .4-.1.5-.3.1-.3 0-.7-.2-.9zM27.3 32.5c-.2-.3-.5-.4-.8-.2-.3.2-.4.5-.2.8l.9 1.5c.1.2.3.3.5.3.1 0 .2 0 .3-.1.3-.2.4-.5.2-.8l-.9-1.5zM31.6 15.4c.1 0 .2 0 .3-.1l1.5-.9c.3-.2.4-.5.2-.8-.2-.3-.5-.4-.8-.2l-1.5.9c-.3.2-.4.5-.2.8.1.2.3.3.5.3z"/></svg>